<svg xmlns="http://www.w3.org/2000/svg" width="1972.589" height="2317.545" viewBox="0 0 1972.589 2317.545">
  <path id="Bitcoin-Icon-SVG-pdkgvffgvfg" d="M1990.25,1150.532c31.322-209.656-128.311-322.369-346.616-397.553l70.9-283.989L1541.6,425.915l-69.071,276.521c-45.407-11.312-92.074-22.057-138.458-32.582L1403.4,391.505,1230.64,348.43l-70.694,283.879-348.7-86.37L765.245,730.606s128.28,29.4,125.57,31.227c70.017,17.488,82.715,63.809,80.573,100.55l-194.011,778c-8.571,21.27-30.282,53.158-79.218,40.964,1.733,2.521-125.664-31.511-125.664-31.511L486.66,1848.018l348.192,87.915-71.561,287.3,172.678,43.075,70.9-284.209c47.266,12.793,92.956,24.61,137.733,35.733l-70.615,282.886,172.9,43.075,71.56-286.746c294.829,55.774,516.537,33.275,609.73-233.178,75.184-214.666-3.687-338.5-158.813-419.3,112.965-26.154,198.044-100.424,220.747-253.928m-395,553.83c-53.568,214.666-414.915,98.66-532.166,69.512l94.941-380.569c117.188,29.242,492.967,87.158,437.288,311.025m53.568-556.949c-48.747,195.366-349.625,96.107-447.277,71.75l85.961-345.261c97.683,24.389,412.016,69.8,361.19,273.5" transform="matrix(0.966, -0.259, 0.259, 0.966, -560.258, 179.574)"/>
</svg>
